<?xml version="1.0" encoding="UTF-8"?>
<svg id="Capa_1" data-name="Capa 1" xmlns="http://www.w3.org/2000/svg" viewBox="0 0 1080 1080">
  <defs>
    <style>
      .cls-1 {
        fill: #fff;
      }
    </style>
  </defs>
  <path class="cls-1" d="M514.27,396.95c18.4-.62,40.47-.66,58.75.67,26.51,1.92,26.76,22.29,15.63,41.71-25.41,44.34-108.98,33.27-114.91-16.42-3.36-28.12,20.95-25.29,40.53-25.95Z"/>
  <path class="cls-1" d="M411.48,243.65h-50c42.71-116.46,177.63-145.67,280.67-88.17,49.26,27.49,86.48,76.8,94.77,133.23,16.77,2.2,32.28,5.27,37.12,23.88,4.34,16.68,2,53.33,1.45,71.57-.9,30.16,4.19,57.75-35.56,59.53-3.13.14-6.82-2.06-9.05-.14-24.09,75.13-91.82,127.13-170.86,131.15-16.25.83-51.6,2.74-53.59-19.51-3.22-36.01,35.73-27.08,58.53-28.55,49.08-3.16,99.25-41.71,114.55-88.45,5.86-17.9,3.2-31.93,3.92-50.08,2.68-67.64,15.24-133.85-43.49-182.43-71.5-59.14-183.9-46.95-228.47,37.97Z"/>
  <path class="cls-1" d="M397.48,287.65c-.98,6.22-2.91,20.93-.72,26.22,21.91,23.42,35.95,46.8,33.71,80.27-2.98,44.55-46.62,117.15-95.52,72.54-30.93-28.22-38.53-81.45-21.94-118.99,10.37-23.47,29.58-33.94,36.47-60.03h48ZM333.47,343.66c-2.59-3.03-9.82,13.87-10.28,15.21-6.55,19.33-5.93,42.79.52,62.05,1.1,3.28,5.2,13.65,6.92,16.08,4.52,6.38,5.42,1.78,4.59-3.59-1.61-10.36-6.95-20.59-7.78-31.22-1.6-20.42,3.07-38.68,6.03-58.53Z"/>
  <path class="cls-1" d="M402.48,264.65c-1.81,5.85-4.02,16.81-5,23h-48c2.01-7.63,4.01-15.49,6-23h47Z"/>
  <path class="cls-1" d="M411.48,243.65c-2.23,4.25-7.58,16.42-9,21h-47c2.11-7.96,3.02-12.86,6-21h50Z"/>
  <path class="cls-1" d="M366.48,645.65h18c-5.05,28.78.21,59.6-2.01,88.49-2.39,31.09-26.89,41.28-54.98,34-1.98-.51-12.13-3.82-12.77-4.73-.5-.7-2.73-15.14-2.23-15.76,1.36-1.68,1.82.65,2.28,1.26,1.67,2.16,2.41,4.15,4.69,6.26,10.53,9.73,34.28,13.28,43.57.52,1.47-2.02,4.46-9.41,4.46-11.54v-19.5c-35.66,14.49-66.94-5.75-62.99-45.49,2.91-29.3,38.91-46.23,62.5-27.53l-.51-5.98ZM345.3,649.89c-35.51,1.33-30.41,66.65-2.88,72.32,8.46,1.74,19.98.64,25.86-6.25-.64-15.34,1.59-32.56.06-47.68-.61-6.07-1.4-8.88-6.37-12.63-4.24-3.2-11.34-5.96-16.68-5.76Z"/>
  <path class="cls-1" d="M289.48,727.65h-19c.64-3.75,1.79-7.65,2.04-11.46.79-12.07,1.43-37.52-.13-48.95-3.14-23.07-29.44-11.77-39.93-.88.84,20.38-1.92,41.24,2.02,61.29h-19c.79-4.41,1.83-8.94,2.05-13.45.83-17.03.91-39.1,0-56.09-.21-3.97-1.41-8.49-2.04-12.46h19l-1.99,13c17.65-16.68,51.93-24.82,54.97,8.52,1.8,19.64-2.54,40.94,2.02,60.48Z"/>
  <g>
    <path class="cls-1" d="M195.48,645.65c-.79,4.41-1.83,8.94-2.05,13.45-.83,17.03-.91,39.1,0,56.09.21,3.97,1.41,8.49,2.04,12.46h-19c.79-4.41,1.83-8.94,2.05-13.45.83-17.03.91-39.1,0-56.09-.21-3.97-1.41-8.49-2.04-12.46h19Z"/>
    <circle class="cls-1" cx="185.93" cy="621.54" r="8.78"/>
  </g>
  <path class="cls-1" d="M81.48,727.65c2.75-29.09,1.87-58.32,2.04-87.54-1.98-9.12.07-18.49-3.04-27.45,17.9,2.57,34.02-5.13,51.69,2.8,20.2,9.06,22.57,37.17,7.85,52.23-2.07,2.12-10.67,6.68-10.44,8.3,10.98,13.15,19.8,30.41,30.93,43.13,1.52,1.74,3.71,4.12,5.46,5.54,1.59,1.29,4.1,1.34,4.51,2.99h-22.5c-10.17-16.84-22.31-32.38-33.51-48.53-5.53.21-10.48.54-15.99-.47v41.5c0,1.46,2.22,5.42,2,7.5h-19ZM97.48,620.15v51c0,.11,1.39,1.5,1.5,1.5h15c1.33,0,9.02-4.24,10.52-5.48,13.18-10.88,12.51-45.08-6.96-49.08-3.16-.65-18.95-1.41-20.06,2.06Z"/>
  <path class="cls-1" d="M474.48,618.65l-2.01,27.01,29.01-1c-.29.88-.6,8-1,8h-28v58.5c0,1,2.66,7.45,3.56,8.44,3.34,3.68,10.4,3.91,14.68,1.8l11.75-8.74c-1.89,14.76-12.48,18.61-26.05,16.54-7.66-1.17-17.95-8.77-17.95-17.05v-59.5c-6.88-.76-15.94,3.51-14-7h14l-2-27h18Z"/>
  <path class="cls-1" d="M555.25,643.92c64.08-.6,55.98,98-9.81,84.27-49.96-10.43-41.87-83.78,9.81-84.27ZM536.83,657.01c-14.85,14.88-10.2,59.97,12.63,65.15,44.61,10.13,41.52-65.11,12.07-71.07-8.48-1.72-18.43-.37-24.7,5.92Z"/>
  <path class="cls-1" d="M100.48,776.65c-3.42,15.63-1.98,32.09-1.49,48.01l46.5-37.5c3.68-.72,6.35-10.51,6.99-10.51h22c-.9,1.93-4.31,2.04-6.33,3.18-3.53,1.98-7.29,4.97-10.57,7.43-14.73,11-28.29,24.88-43.09,35.97-.23.98,2.62,4.4,3.47,5.44,11.66,14.29,28.05,31.55,41,45,6.17,6.41,12.46,12.58,19.51,17.99h-24c-.96-2.68-3.59-5.92-5.49-8.01-16.5-18.26-33.17-36.59-50.51-53.99v54.5c0,1.46,2.22,5.42,2,7.5h-19l2.04-26.46c-.82-29.52,2.03-59.52-3.04-88.54h20Z"/>
  <path class="cls-1" d="M389.48,771.65c-3.34,16.6-2.84,34.03-2.99,50.99.65.76,10.17-6.9,11.69-7.8,10.8-6.4,24.84-11.07,35.65-2.04,11.56,9.65,7.17,31.5,7.61,45.39.07,2.13.96,4.06,1.03,5.97.32,9.21-.24,18.34,1.01,27.49h-18c.43-4.64,1.81-9.87,2.04-14.46.52-10.17,1.38-43.46-1.85-51.24-7.1-17.14-30.72-4.35-38.99,5.4-.88,20.15.29,40.24,1.79,60.29h-18c.47-4.92,1.81-10.6,2.04-15.46,1.29-27.06,1.27-61.02,0-88.09-.25-5.41-1.7-11.03-2.05-16.45h19Z"/>
  <path class="cls-1" d="M625.48,891.65h-18c.32-5.61,1.79-11.94,2.04-17.46.47-10.32,1.4-39.86-2.01-48.08-7.14-17.22-30.48-4.68-38.83,5.24-.26,20.13-1.06,40.36,1.79,60.29h-18c3.02-27.11,3.02-54.9,0-82h18l-.99,12,19.32-11.17c44.48-13.25,33.5,35.15,34.64,61.72.27,6.18,1.85,13.18,2.04,19.46Z"/>
  <path class="cls-1" d="M245.48,782.65l-2,27,29.01-.99c.06.95-.6,8-1,8h-28v56.5c0,3.59,3.12,10.59,6.63,12.37,8.84,4.5,17.36-3.26,23.36-8.87-1.96,7.87-1.94,12.82-10.19,15.3-10.25,3.08-24.7,2.34-30.65-7.95-.61-1.06-3.15-8.16-3.15-8.85v-58.5h-13.01s0-7.01,0-7.01h13.01c.4-9.06-.6-18.06-2.01-26.99h18Z"/>
  <path class="cls-1" d="M348.22,810.91c.57.46,5.76,13.2,5.25,13.74-4-1.51-6.54-4.98-10.62-6.87-59.15-27.43-56.73,93.16,3.32,65.06l10.3-8.19c.51.55-5.04,13.39-5.52,13.97-2.17,2.58-19.12,5.12-22.97,5.12-61.17-.04-58.75-86.44,1.89-86,2.39.02,17.05,2.13,18.35,3.16Z"/>
  <path class="cls-1" d="M204.48,809.65c-.79,4.41-1.83,8.94-2.05,13.45-.83,17.03-.91,39.1,0,56.09.21,3.97,1.41,8.49,2.04,12.46h-19c.79-4.41,1.83-8.94,2.05-13.45.83-17.03.91-39.1,0-56.09-.21-3.97-1.41-8.49-2.04-12.46h19Z"/>
  <circle class="cls-1" cx="194.93" cy="785.54" r="8.78"/>
  <path class="cls-1" d="M475.48,850.65c-1.22,34.25,33.23,49.53,55.99,23-2.2,11.92-4.98,16.05-16.93,18.56-24.22,5.08-49.77-5.24-54.8-31.31-11.95-61.95,77.24-73.8,77.74-10.24h-62ZM512.12,820.01c-5.22-5.12-12.98-6.4-20.08-5.29-10.91,1.7-18.15,20-16.57,29.94l46.01-1.01c-.62-8.09-3.48-17.86-9.36-23.64Z"/>
  <g>
    <path class="cls-1" d="M999.52,622.61v265.09s-334.08,0-334.08,0v-265.09s334.08,0,334.08,0ZM688.48,859.65h29c-1.89-5.08-.57-9.73.72-14.78,4.43-17.42,16.14-34.74,21.39-52.11,30.75-1.95,61.97-1.59,92.76.03,7.04,22.02,24.27,42.99,22.14,66.86h39l-16.18-30.32-79.72-180.06c-.78-1.04-11.37-1.1-12.21,0l-96.9,210.38ZM947.48,652.65h-34c3.22,16.28,2.41,32.18,2.96,48.54,1.23,37.02,1.23,73.88,0,110.92-.53,16.04.37,31.59-2.96,47.54h34c-1.08-5.77-2.44-11.64-2.99-17.51-4.24-45.01-2.88-108.2-1.06-154.04.47-11.87,1.94-23.8,4.05-35.45Z"/>
    <path class="cls-1" d="M688.48,859.65l96.9-210.38c.83-1.09,11.42-1.04,12.21,0l79.72,180.06,16.18,30.32h-39c2.13-23.88-15.09-44.85-22.14-66.86-30.79-1.62-62.01-1.98-92.76-.03-5.24,17.37-16.96,34.69-21.39,52.11-1.28,5.05-2.6,9.71-.72,14.78h-29ZM786.46,688.66c-2.29-.48-1.6.25-2.24,1.27-1.57,2.5-3.52,7.92-4.93,11.04-11.15,24.7-20.75,50.14-32.35,74.65l-.47,4.02,79-1-39.01-89.99Z"/>
    <path class="cls-1" d="M947.48,652.65c-2.11,11.65-3.58,23.58-4.05,35.45-1.82,45.84-3.18,109.03,1.06,154.04.55,5.87,1.91,11.74,2.99,17.51h-34c3.33-15.95,2.43-31.5,2.96-47.54,1.23-37.04,1.23-73.89,0-110.92-.54-16.36.26-32.26-2.96-48.54h34Z"/>
    <path class="cls-1" d="M786.46,688.66l39.01,89.99-79,1,.47-4.02c11.6-24.51,21.2-49.95,32.35-74.65,1.41-3.12,3.36-8.54,4.93-11.04.64-1.03-.06-1.75,2.24-1.27Z"/>
  </g>
</svg>