<?xml version="1.0" encoding="UTF-8"?>
<svg id="Capa_2" data-name="Capa 2" xmlns="http://www.w3.org/2000/svg" viewBox="0 0 403.19 383.3">
  <defs>
    <style>
      .cls-1 {
        fill: #ef4633;
      }

      .cls-2 {
        fill: #01335d;
      }

      .cls-3 {
        fill: #fdfdfd;
      }
    </style>
  </defs>
  <g id="Capa_1-2" data-name="Capa 1">
    <g>
      <path class="cls-2" d="M48.75,99.4C108.88-57.45,345.22-17.13,370.02,139.7c15.96-1.29,30.01,6.19,31.92,23.22,1.62,14.36,2.01,76.05-.96,88.39-4.32,17.96-20.73,19.87-36.54,18.6-20.33,65.2-77.53,109.47-146.01,112.95-13.92.71-43.23,2.77-45.46-16.09-2.29-19.32,12.14-24.33,28.6-24.55,14.32-.19,21.67,1.28,36.8-2.25,42.87-10.01,80.01-46.35,86.77-90.52-3.18-74.34,22.38-143.3-50.05-191.41-61.09-40.58-149.2-26.76-183.06,41.37h-43.28Z"/>
      <path class="cls-2" d="M245.15,238.04c8.02,8.78.68,25.36-5.39,33.53-19.55,26.32-64.96,25.22-85.63.95-10.34-12.13-15.56-36.52,4.53-40.17,8.61-1.56,71.41-1.46,78.17.73,1.35.44,7.44,3.99,8.31,4.95Z"/>
      <g>
        <path class="cls-1" d="M79.46,137.1c-.92,5.51-2.54,17.87-1.11,22.75.38,1.28,14.19,16.08,17.05,20.65,16.44,26.29,14.84,55.41,2.45,83.19-16.05,36-50.28,55.43-79,18.48-22.55-29.01-25.55-73.29-5.32-104.2,10.43-15.93,20.38-20.32,25.44-40.87h40.48ZM25.01,185.96c-2-2.57-6.22,6.95-6.67,7.98-7.06,16.12-7.61,34.63-3.27,51.52.85,3.31,7.32,20.86,9.26,21.47,2.85.9,2.14-1.4,1.8-3.21-1.64-8.79-5.64-17.38-6.53-27-1.64-17.77,1.24-33.72,5.4-50.77Z"/>
        <path class="cls-2" d="M83.65,117.55c-.81,2.62-3.62,16.14-4.19,19.54h-40.48c1.59-6.46,2.43-12.99,4.19-19.54h40.48Z"/>
        <path class="cls-1" d="M92.02,99.4c-1.68,3.38-7.7,15.96-8.38,18.15h-40.48c1.52-5.69,3.51-12.73,5.58-18.15h43.28Z"/>
        <path class="cls-3" d="M25.01,185.96c-4.15,17.05-7.04,32.99-5.4,50.77.89,9.62,4.88,18.2,6.53,27,.34,1.81,1.05,4.1-1.8,3.21-1.94-.61-8.41-18.16-9.26-21.47-4.34-16.89-3.8-35.4,3.27-51.52.45-1.03,4.68-10.55,6.67-7.98Z"/>
      </g>
    </g>
  </g>
</svg>