<?xml version="1.0" encoding="UTF-8"?>
<svg xmlns="http://www.w3.org/2000/svg" viewBox="0 0 512 512">
  <rect width="512" height="512" rx="64" fill="#01335D"/>
  <g transform="translate(80, 60) scale(0.65)">
    <path fill="#ee4633" d="M397.48,317.33c-.98,6.22-2.91,20.93-.72,26.22,21.91,23.42,35.95,46.8,33.71,80.27-2.98,44.55-46.62,117.15-95.52,72.54-30.93-28.22-38.53-81.45-21.94-118.99,10.37-23.47,29.58-33.94,36.47-60.03h48ZM333.47,373.33c-2.59-3.03-9.82,13.87-10.28,15.21-6.55,19.33-5.93,42.79.52,62.05,1.1,3.28,5.2,13.65,6.92,16.08,4.52,6.38,5.42,1.78,4.59-3.59-1.61-10.36-6.95-20.59-7.78-31.22-1.6-20.42,3.07-38.68,6.03-58.53Z"/>
    <path fill="#fefefe" d="M333.47,373.33c-2.96,19.85-7.63,38.11-6.03,58.53.83,10.63,6.17,20.86,7.78,31.22.83,5.36-.07,9.97-4.59,3.59-1.72-2.43-5.82-12.79-6.92-16.08-6.45-19.26-7.07-42.71-.52-62.05.46-1.35,7.68-18.24,10.28-15.21Z"/>
    <path fill="#ee4633" d="M411.48,273.33c-2.23,4.25-7.58,16.42-9,21h-47c2.11-7.96,3.02-12.86,6-21h50Z"/>
  </g>
</svg>
